# xmcd
#
# Track frame offsets: 
#        150
#        13075
#        25347
#        38220
#        52305
#        64737
#        83212
#        100762
#        116697
#        131397
#        146285
#        163240
#        177995
#        194370
#
# Disc length: 2810 seconds
#
# Revision: 3
# Processed by: cddbd v1.4PL0 Copyright (c) Steve Scherf et al.
# Submitted via: ExactAudioCopy v0.95a4
#
DISCID=c30af80e
DTITLE=John Williamson - True Blue
DYEAR=1982
DGENRE=Country
TTITLE0=Old Man Emu
TTITLE1=Big Country Round
TTITLE2=Boyhood Story
TTITLE3=Under the Bridge
TTITLE4=Heaven's Right Here
TTITLE5=The Breaker
TTITLE6=Murrumbidgee Madness
TTITLE7=True Blue
TTITLE8=A Granda Plan for Landa
TTITLE9=Only a Dog
TTITLE10=Springbrook
TTITLE11=Send Down the Rain
TTITLE12=Hawkesbury River Lovin'
TTITLE13=Diggers of the ANZAC (This is Gallipoli)
EXTD=
EXTT0=
EXTT1=
EXTT2=
EXTT3=
EXTT4=
EXTT5=
EXTT6=
EXTT7=
EXTT8=
EXTT9=
EXTT10=
EXTT11=
EXTT12=
EXTT13=
PLAYORDER=
